%TF.GenerationSoftware,KiCad,Pcbnew,10.0.1*%
%TF.CreationDate,2026-06-25T14:03:28+05:30*%
%TF.ProjectId,Erbium,45726269-756d-42e6-9b69-6361645f7063,rev?*%
%TF.SameCoordinates,Original*%
%TF.FileFunction,Copper,L1,Top*%
%TF.FilePolarity,Positive*%
%FSLAX46Y46*%
G04 Gerber Fmt 4.6, Leading zero omitted, Abs format (unit mm)*
G04 Created by KiCad (PCBNEW 10.0.1) date 2026-06-25 14:03:28*
%MOMM*%
%LPD*%
G01*
G04 APERTURE LIST*
G04 Aperture macros list*
%AMRoundRect*
0 Rectangle with rounded corners*
0 $1 Rounding radius*
0 $2 $3 $4 $5 $6 $7 $8 $9 X,Y pos of 4 corners*
0 Add a 4 corners polygon primitive as box body*
4,1,4,$2,$3,$4,$5,$6,$7,$8,$9,$2,$3,0*
0 Add four circle primitives for the rounded corners*
1,1,$1+$1,$2,$3*
1,1,$1+$1,$4,$5*
1,1,$1+$1,$6,$7*
1,1,$1+$1,$8,$9*
0 Add four rect primitives between the rounded corners*
20,1,$1+$1,$2,$3,$4,$5,0*
20,1,$1+$1,$4,$5,$6,$7,0*
20,1,$1+$1,$6,$7,$8,$9,0*
20,1,$1+$1,$8,$9,$2,$3,0*%
G04 Aperture macros list end*
%TA.AperFunction,SMDPad,CuDef*%
%ADD10RoundRect,0.225000X-0.250000X0.225000X-0.250000X-0.225000X0.250000X-0.225000X0.250000X0.225000X0*%
%TD*%
%TA.AperFunction,SMDPad,CuDef*%
%ADD11RoundRect,0.225000X0.250000X-0.225000X0.250000X0.225000X-0.250000X0.225000X-0.250000X-0.225000X0*%
%TD*%
%TA.AperFunction,SMDPad,CuDef*%
%ADD12RoundRect,0.225000X-0.225000X-0.250000X0.225000X-0.250000X0.225000X0.250000X-0.225000X0.250000X0*%
%TD*%
%TA.AperFunction,ComponentPad*%
%ADD13R,1.300000X1.300000*%
%TD*%
%TA.AperFunction,ComponentPad*%
%ADD14C,1.300000*%
%TD*%
%TA.AperFunction,ComponentPad*%
%ADD15O,1.900000X2.900000*%
%TD*%
%TA.AperFunction,ComponentPad*%
%ADD16O,2.900000X1.900000*%
%TD*%
%TA.AperFunction,SMDPad,CuDef*%
%ADD17R,1.240000X0.600000*%
%TD*%
%TA.AperFunction,SMDPad,CuDef*%
%ADD18R,1.240000X0.300000*%
%TD*%
%TA.AperFunction,HeatsinkPad*%
%ADD19O,2.100000X1.000000*%
%TD*%
%TA.AperFunction,HeatsinkPad*%
%ADD20O,1.800000X1.000000*%
%TD*%
%TA.AperFunction,SMDPad,CuDef*%
%ADD21RoundRect,0.250000X-0.450000X-0.350000X0.450000X-0.350000X0.450000X0.350000X-0.450000X0.350000X0*%
%TD*%
%TA.AperFunction,SMDPad,CuDef*%
%ADD22RoundRect,0.062500X-0.350000X-0.062500X0.350000X-0.062500X0.350000X0.062500X-0.350000X0.062500X0*%
%TD*%
%TA.AperFunction,SMDPad,CuDef*%
%ADD23RoundRect,0.062500X-0.062500X-0.350000X0.062500X-0.350000X0.062500X0.350000X-0.062500X0.350000X0*%
%TD*%
%TA.AperFunction,HeatsinkPad*%
%ADD24R,3.700000X3.700000*%
%TD*%
%TA.AperFunction,ViaPad*%
%ADD25C,0.500000*%
%TD*%
%TA.AperFunction,ViaPad*%
%ADD26C,0.600000*%
%TD*%
%TA.AperFunction,Conductor*%
%ADD27C,0.200000*%
%TD*%
%TA.AperFunction,Conductor*%
%ADD28C,0.250000*%
%TD*%
G04 APERTURE END LIST*
D10*
%TO.P,R2,1*%
%TO.N,+5V*%
X93600000Y-105165000D03*
%TO.P,R2,2*%
%TO.N,Net-(J4-CC1)*%
X93600000Y-106715000D03*
%TD*%
D11*
%TO.P,R7,1*%
%TO.N,GND*%
X113525000Y-67450000D03*
%TO.P,R7,2*%
%TO.N,Net-(J5-CC1)*%
X113525000Y-65900000D03*
%TD*%
%TO.P,C12,1*%
%TO.N,GND*%
X115830000Y-88020000D03*
%TO.P,C12,2*%
%TO.N,+3V3*%
X115830000Y-86470000D03*
%TD*%
D10*
%TO.P,R1,1*%
%TO.N,+5V*%
X94841875Y-89924375D03*
%TO.P,R1,2*%
%TO.N,Net-(J3-CC1)*%
X94841875Y-91474375D03*
%TD*%
D11*
%TO.P,C9,1*%
%TO.N,GND*%
X119080000Y-87950000D03*
%TO.P,C9,2*%
%TO.N,+3V3*%
X119080000Y-86400000D03*
%TD*%
%TO.P,R4,1*%
%TO.N,+5V*%
X93700000Y-111665000D03*
%TO.P,R4,2*%
%TO.N,Net-(J4-CC2)*%
X93700000Y-110115000D03*
%TD*%
%TO.P,C11,1*%
%TO.N,GND*%
X117460000Y-88010000D03*
%TO.P,C11,2*%
%TO.N,+3V3*%
X117460000Y-86460000D03*
%TD*%
D12*
%TO.P,R6,1*%
%TO.N,GND*%
X110750000Y-77000000D03*
%TO.P,R6,2*%
%TO.N,Net-(U1-RBIAS)*%
X112300000Y-77000000D03*
%TD*%
D13*
%TO.P,J1,1,VBUS_1*%
%TO.N,+5V*%
X90631250Y-65087500D03*
D14*
%TO.P,J1,2,D-_2*%
%TO.N,D1_P*%
X93131250Y-65087500D03*
%TO.P,J1,3,D+_3*%
%TO.N,D1_N*%
X95131250Y-65087500D03*
%TO.P,J1,4,GND_4*%
%TO.N,GND*%
X97631250Y-65087500D03*
D15*
%TO.P,J1,5,Shield_5*%
X87561250Y-64487500D03*
D16*
X94131250Y-60307500D03*
D15*
X100701250Y-64487500D03*
%TD*%
D17*
%TO.P,J4,A1,GND_A1*%
%TO.N,GND*%
X91372500Y-105373750D03*
%TO.P,J4,A4,VBUS_A4*%
%TO.N,+5V*%
X91372500Y-106173750D03*
D18*
%TO.P,J4,A5,CC1_A5*%
%TO.N,Net-(J4-CC1)*%
X91372500Y-107323750D03*
%TO.P,J4,A6,D+_A6*%
%TO.N,D4_P*%
X91372500Y-108323750D03*
%TO.P,J4,A7,D-_A7*%
%TO.N,D4_N*%
X91372500Y-108823750D03*
%TO.P,J4,A8,SBU1_A8*%
%TO.N,unconnected-(J4-SBU1-PadA8)*%
X91372500Y-109823750D03*
D17*
%TO.P,J4,A9,VBUS_A9*%
%TO.N,+5V*%
X91372500Y-110973750D03*
%TO.P,J4,A12,GND_A12*%
%TO.N,GND*%
X91372500Y-111773750D03*
%TO.P,J4,B1,GND_B1*%
X91372500Y-111773750D03*
%TO.P,J4,B4,VBUS_B4*%
%TO.N,+5V*%
X91372500Y-110973750D03*
D18*
%TO.P,J4,B5,CC2_B5*%
%TO.N,Net-(J4-CC2)*%
X91372500Y-110323750D03*
%TO.P,J4,B6,D+_B6*%
%TO.N,D4_P*%
X91372500Y-109323750D03*
%TO.P,J4,B7,D-_B7*%
%TO.N,D4_N*%
X91372500Y-107823750D03*
%TO.P,J4,B8,SBU2_B8*%
%TO.N,unconnected-(J4-SBU2-PadB8)*%
X91372500Y-106823750D03*
D17*
%TO.P,J4,B9,VBUS_B9*%
%TO.N,+5V*%
X91372500Y-106173750D03*
%TO.P,J4,B12,GND_B12*%
%TO.N,GND*%
X91372500Y-105373750D03*
D19*
%TO.P,J4,S1,SHIELD_S1*%
X90772500Y-104253750D03*
D20*
X86572500Y-104253750D03*
D19*
X90772500Y-112893750D03*
D20*
X86572500Y-112893750D03*
%TD*%
D17*
%TO.P,J3,A1,GND_A1*%
%TO.N,GND*%
X91405625Y-91293125D03*
%TO.P,J3,A4,VBUS_A4*%
%TO.N,+5V*%
X91405625Y-92093125D03*
D18*
%TO.P,J3,A5,CC1_A5*%
%TO.N,Net-(J3-CC1)*%
X91405625Y-93243125D03*
%TO.P,J3,A6,D+_A6*%
%TO.N,D3_P*%
X91405625Y-94243125D03*
%TO.P,J3,A7,D-_A7*%
%TO.N,D3_N*%
X91405625Y-94743125D03*
%TO.P,J3,A8,SBU1_A8*%
%TO.N,unconnected-(J3-SBU1-PadA8)*%
X91405625Y-95743125D03*
D17*
%TO.P,J3,A9,VBUS_A9*%
%TO.N,+5V*%
X91405625Y-96893125D03*
%TO.P,J3,A12,GND_A12*%
%TO.N,GND*%
X91405625Y-97693125D03*
%TO.P,J3,B1,GND_B1*%
X91405625Y-97693125D03*
%TO.P,J3,B4,VBUS_B4*%
%TO.N,+5V*%
X91405625Y-96893125D03*
D18*
%TO.P,J3,B5,CC2_B5*%
%TO.N,Net-(J3-CC2)*%
X91405625Y-96243125D03*
%TO.P,J3,B6,D+_B6*%
%TO.N,D3_P*%
X91405625Y-95243125D03*
%TO.P,J3,B7,D-_B7*%
%TO.N,D3_N*%
X91405625Y-93743125D03*
%TO.P,J3,B8,SBU2_B8*%
%TO.N,unconnected-(J3-SBU2-PadB8)*%
X91405625Y-92743125D03*
D17*
%TO.P,J3,B9,VBUS_B9*%
%TO.N,+5V*%
X91405625Y-92093125D03*
%TO.P,J3,B12,GND_B12*%
%TO.N,GND*%
X91405625Y-91293125D03*
D19*
%TO.P,J3,S1,SHIELD_S1*%
X90805625Y-90173125D03*
D20*
X86605625Y-90173125D03*
D19*
X90805625Y-98813125D03*
D20*
X86605625Y-98813125D03*
%TD*%
D12*
%TO.P,R8,1*%
%TO.N,GND*%
X113543750Y-62706250D03*
%TO.P,R8,2*%
%TO.N,Net-(J5-CC2)*%
X115093750Y-62706250D03*
%TD*%
D17*
%TO.P,J5,A1,GND_A1*%
%TO.N,GND*%
X116925000Y-67493750D03*
%TO.P,J5,A4,VBUS_A4*%
%TO.N,+5V*%
X116925000Y-66693750D03*
D18*
%TO.P,J5,A5,CC1_A5*%
%TO.N,Net-(J5-CC1)*%
X116925000Y-65543750D03*
%TO.P,J5,A6,D+_A6*%
%TO.N,USB_D_P*%
X116925000Y-64543750D03*
%TO.P,J5,A7,D-_A7*%
%TO.N,USB_D_N*%
X116925000Y-64043750D03*
%TO.P,J5,A8,SBU1_A8*%
%TO.N,unconnected-(J5-SBU1-PadA8)*%
X116925000Y-63043750D03*
D17*
%TO.P,J5,A9,VBUS_A9*%
%TO.N,+5V*%
X116925000Y-61893750D03*
%TO.P,J5,A12,GND_A12*%
%TO.N,GND*%
X116925000Y-61093750D03*
%TO.P,J5,B1,GND_B1*%
X116925000Y-61093750D03*
%TO.P,J5,B4,VBUS_B4*%
%TO.N,+5V*%
X116925000Y-61893750D03*
D18*
%TO.P,J5,B5,CC2_B5*%
%TO.N,Net-(J5-CC2)*%
X116925000Y-62543750D03*
%TO.P,J5,B6,D+_B6*%
%TO.N,USB_D_P*%
X116925000Y-63543750D03*
%TO.P,J5,B7,D-_B7*%
%TO.N,USB_D_N*%
X116925000Y-65043750D03*
%TO.P,J5,B8,SBU2_B8*%
%TO.N,unconnected-(J5-SBU2-PadB8)*%
X116925000Y-66043750D03*
D17*
%TO.P,J5,B9,VBUS_B9*%
%TO.N,+5V*%
X116925000Y-66693750D03*
%TO.P,J5,B12,GND_B12*%
%TO.N,GND*%
X116925000Y-67493750D03*
D19*
%TO.P,J5,S1,SHIELD_S1*%
X117525000Y-68613750D03*
D20*
X121725000Y-68613750D03*
D19*
X117525000Y-59973750D03*
D20*
X121725000Y-59973750D03*
%TD*%
D12*
%TO.P,C8,1*%
%TO.N,Net-(U1-XTALOUT)*%
X119225000Y-74750000D03*
%TO.P,C8,2*%
%TO.N,GND*%
X120775000Y-74750000D03*
%TD*%
D21*
%TO.P,24Mhz1,1,1_1*%
%TO.N,Net-(U1-XTALIN{slash}CLKIN)*%
X114850000Y-74925000D03*
%TO.P,24Mhz1,2,2_2*%
%TO.N,Net-(U1-XTALOUT)*%
X117050000Y-74925000D03*
%TO.P,24Mhz1,3*%
%TO.N,N/C*%
X117050000Y-73225000D03*
%TO.P,24Mhz1,4*%
X114850000Y-73225000D03*
%TD*%
D13*
%TO.P,J2,1,VBUS_1*%
%TO.N,+5V*%
X91281250Y-83462500D03*
D14*
%TO.P,J2,2,D-_2*%
%TO.N,D2_P*%
X91281250Y-80962500D03*
%TO.P,J2,3,D+_3*%
%TO.N,D2_N*%
X91281250Y-78962500D03*
%TO.P,J2,4,GND_4*%
%TO.N,GND*%
X91281250Y-76462500D03*
D16*
%TO.P,J2,5,Shield_5*%
X90681250Y-86532500D03*
D15*
X86501250Y-79962500D03*
D16*
X90681250Y-73392500D03*
%TD*%
D11*
%TO.P,R5,1*%
%TO.N,+3V3*%
X120650000Y-81737500D03*
%TO.P,R5,2*%
%TO.N,Net-(U1-RESET_N)*%
X120650000Y-80187500D03*
%TD*%
D12*
%TO.P,C5,1*%
%TO.N,GND*%
X119950000Y-78000000D03*
%TO.P,C5,2*%
%TO.N,+3V3*%
X121500000Y-78000000D03*
%TD*%
D10*
%TO.P,C7,1*%
%TO.N,GND*%
X112070000Y-73275000D03*
%TO.P,C7,2*%
%TO.N,Net-(U1-XTALIN{slash}CLKIN)*%
X112070000Y-74825000D03*
%TD*%
D11*
%TO.P,R3,1*%
%TO.N,+5V*%
X93846875Y-97644375D03*
%TO.P,R3,2*%
%TO.N,Net-(J3-CC2)*%
X93846875Y-96094375D03*
%TD*%
D22*
%TO.P,U1,1,USBDM_DN1/PRT_DIS_M1_1*%
%TO.N,D1_N*%
X112712500Y-79756250D03*
%TO.P,U1,2,USBDP_DN1/PRT_DIS_P1_2*%
%TO.N,D1_P*%
X112712500Y-80256250D03*
%TO.P,U1,3,USBDM_DN2/PRT_DIS_M2_3*%
%TO.N,D2_N*%
X112712500Y-80756250D03*
%TO.P,U1,4,USBDP_DN2/PRT_DIS_P2_4*%
%TO.N,D2_P*%
X112712500Y-81256250D03*
%TO.P,U1,5,VDDA33_5*%
%TO.N,+3V3*%
X112712500Y-81756250D03*
%TO.P,U1,6,USBDM_DN3/PRT_DIS_M3_6*%
%TO.N,D3_N*%
X112712500Y-82256250D03*
%TO.P,U1,7,USBDP_DN3/PRT_DIS_P3_7*%
%TO.N,D3_P*%
X112712500Y-82756250D03*
%TO.P,U1,8,USBDM_DN4/PRT_DIS_M4_8*%
%TO.N,D4_N*%
X112712500Y-83256250D03*
%TO.P,U1,9,USBDP_DN4/PRT_DIS_P4_9*%
%TO.N,D4_P*%
X112712500Y-83756250D03*
D23*
%TO.P,U1,10,VDDA33_10*%
%TO.N,+3V3*%
X113650000Y-84693750D03*
%TO.P,U1,11,TEST_11*%
%TO.N,GND*%
X114150000Y-84693750D03*
%TO.P,U1,12,PRTPWR1/BC_EN1_12*%
%TO.N,unconnected-(U1-PRTPWR1{slash}BC_EN1-Pad12)*%
X114650000Y-84693750D03*
%TO.P,U1,13,OCS_N1_13*%
%TO.N,unconnected-(U1-OCS_N1-Pad13)*%
X115150000Y-84693750D03*
%TO.P,U1,14,CRFILT_14*%
%TO.N,unconnected-(U1-CRFILT-Pad14)*%
X115650000Y-84693750D03*
%TO.P,U1,15,VDD33_15*%
%TO.N,+3V3*%
X116150000Y-84693750D03*
%TO.P,U1,16,PRTPWR2/BC_EN2_16*%
%TO.N,unconnected-(U1-PRTPWR2{slash}BC_EN2-Pad16)*%
X116650000Y-84693750D03*
%TO.P,U1,17,OCS_N2_17*%
%TO.N,unconnected-(U1-OCS_N2-Pad17)*%
X117150000Y-84693750D03*
%TO.P,U1,18,PRTPWR3/BC_EN3_18*%
%TO.N,unconnected-(U1-PRTPWR3{slash}BC_EN3-Pad18)*%
X117650000Y-84693750D03*
D22*
%TO.P,U1,19,OCS_N3_19*%
%TO.N,unconnected-(U1-OCS_N3-Pad19)*%
X118587500Y-83756250D03*
%TO.P,U1,20,PRTPWR4/BC_EN4_20*%
%TO.N,unconnected-(U1-PRTPWR4{slash}BC_EN4-Pad20)*%
X118587500Y-83256250D03*
%TO.P,U1,21,OCS_N4_21*%
%TO.N,unconnected-(U1-OCS_N4-Pad21)*%
X118587500Y-82756250D03*
%TO.P,U1,22,SDA/SMBDATA/NON_REM1_22*%
%TO.N,unconnected-(U1-SDA{slash}SMBDATA{slash}NON_REM1-Pad22)*%
X118587500Y-82256250D03*
%TO.P,U1,23,VDD33_23*%
%TO.N,+3V3*%
X118587500Y-81756250D03*
%TO.P,U1,24,SCL/SMBCLK/CFG_SEL0_24*%
%TO.N,GND*%
X118587500Y-81256250D03*
%TO.P,U1,25,HS_IND/CFG_SEL1_25*%
X118587500Y-80756250D03*
%TO.P,U1,26,RESET_N_26*%
%TO.N,Net-(U1-RESET_N)*%
X118587500Y-80256250D03*
%TO.P,U1,27,VBUS_DET_27*%
%TO.N,+5V*%
X118587500Y-79756250D03*
D23*
%TO.P,U1,28,SUSP_IND/LOCAL_PWR/NON_REM0_28*%
%TO.N,unconnected-(U1-SUSP_IND{slash}LOCAL_PWR{slash}NON_REM0-Pad28)*%
X117650000Y-78818750D03*
%TO.P,U1,29,VDDA33_29*%
%TO.N,+3V3*%
X117150000Y-78818750D03*
%TO.P,U1,30,USBDM_UP_30*%
%TO.N,USB_D_N*%
X116650000Y-78818750D03*
%TO.P,U1,31,USBDP_UP_31*%
%TO.N,USB_D_P*%
X116150000Y-78818750D03*
%TO.P,U1,32,XTALOUT_32*%
%TO.N,Net-(U1-XTALOUT)*%
X115650000Y-78818750D03*
%TO.P,U1,33,XTALIN/CLKIN_33*%
%TO.N,Net-(U1-XTALIN{slash}CLKIN)*%
X115150000Y-78818750D03*
%TO.P,U1,34,PLLFILT_34*%
%TO.N,unconnected-(U1-PLLFILT-Pad34)*%
X114650000Y-78818750D03*
%TO.P,U1,35,RBIAS_35*%
%TO.N,Net-(U1-RBIAS)*%
X114150000Y-78818750D03*
%TO.P,U1,36,VDDA33_36*%
%TO.N,+3V3*%
X113650000Y-78818750D03*
D24*
%TO.P,U1,37,VSS_37*%
%TO.N,GND*%
X115650000Y-81756250D03*
%TD*%
D11*
%TO.P,C10,1*%
%TO.N,GND*%
X114180000Y-88010000D03*
%TO.P,C10,2*%
%TO.N,+3V3*%
X114180000Y-86460000D03*
%TD*%
D25*
%TO.N,+5V*%
X88193125Y-94493125D03*
X119062500Y-63411199D03*
X88900000Y-67468750D03*
X121426000Y-87312500D03*
X88193125Y-94493125D03*
X88900000Y-105126250D03*
D26*
%TO.N,GND*%
X111825000Y-92925000D03*
X111918750Y-62706250D03*
X119500000Y-81000000D03*
X123250000Y-77250000D03*
%TO.N,+3V3*%
X120650000Y-84830000D03*
X122700000Y-84820000D03*
%TD*%
%TO.N,GND*%
D27*
X111306250Y-73275000D02*
X112070000Y-73275000D01*
X110331250Y-74250000D02*
X111306250Y-73275000D01*
%TO.N,Net-(U1-XTALIN{slash}CLKIN)*%
X112070000Y-74825000D02*
X112070000Y-75070000D01*
X112070000Y-75070000D02*
X114850000Y-77850000D01*
%TO.N,GND*%
X86605625Y-98813125D02*
X86605625Y-104220625D01*
X86605625Y-104220625D02*
X86572500Y-104253750D01*
%TO.N,D3_N*%
X112093749Y-82256250D02*
X112712500Y-82256250D01*
X112068749Y-82281250D02*
X112093749Y-82256250D01*
X110010552Y-82281250D02*
X112068749Y-82281250D01*
X98523677Y-93768125D02*
X110010552Y-82281250D01*
X92360626Y-93768125D02*
X98523677Y-93768125D01*
X92335626Y-93743125D02*
X92360626Y-93768125D01*
%TO.N,D3_P*%
X112093749Y-82756250D02*
X112712500Y-82756250D01*
X112068749Y-82731250D02*
X112093749Y-82756250D01*
X110196948Y-82731250D02*
X112068749Y-82731250D01*
%TO.N,D3_N*%
X91405625Y-93743125D02*
X92335626Y-93743125D01*
%TO.N,D3_P*%
X92335626Y-94243125D02*
X92360626Y-94218125D01*
X91405625Y-94243125D02*
X92335626Y-94243125D01*
X92360626Y-94218125D02*
X98710073Y-94218125D01*
X98710073Y-94218125D02*
X110196948Y-82731250D01*
%TO.N,+5V*%
X93700000Y-111665000D02*
X93008750Y-110973750D01*
D28*
X92964073Y-92093125D02*
X94841875Y-90215323D01*
D27*
X118907250Y-79436500D02*
X119163500Y-79436500D01*
X121600000Y-79020000D02*
X121770000Y-79190000D01*
D28*
X88385574Y-94493125D02*
X88193125Y-94493125D01*
D27*
X88900000Y-66818750D02*
X90631250Y-65087500D01*
D28*
X118357551Y-65881250D02*
X119062500Y-65881250D01*
X117545051Y-66693750D02*
X118357551Y-65881250D01*
X94841875Y-90215323D02*
X94841875Y-89924375D01*
D27*
X118587500Y-79756250D02*
X118907250Y-79436500D01*
X88900000Y-67468750D02*
X88900000Y-66818750D01*
X88900000Y-105126250D02*
X88900000Y-105287258D01*
D28*
X90778750Y-110973750D02*
X88900000Y-109095000D01*
D27*
X91405625Y-96893125D02*
X93095625Y-96893125D01*
D28*
X92591250Y-106173750D02*
X93600000Y-105165000D01*
X90785574Y-92093125D02*
X88385574Y-94493125D01*
X88900000Y-108026199D02*
X88900000Y-105126250D01*
X91372500Y-110973750D02*
X90778750Y-110973750D01*
X91405625Y-92093125D02*
X92964073Y-92093125D01*
X91372500Y-106173750D02*
X92591250Y-106173750D01*
D27*
X88193125Y-94493125D02*
X88350219Y-94493125D01*
X90750219Y-96893125D02*
X91405625Y-96893125D01*
X93095625Y-96893125D02*
X93846875Y-97644375D01*
X88350219Y-94493125D02*
X90750219Y-96893125D01*
D28*
X88900000Y-109095000D02*
X88900000Y-108026199D01*
X117545051Y-61893750D02*
X119062500Y-63411199D01*
X91405625Y-92093125D02*
X90785574Y-92093125D01*
X119062500Y-63411199D02*
X119062500Y-65881250D01*
D27*
X121770000Y-79190000D02*
X121770000Y-86968500D01*
X119580000Y-79020000D02*
X121600000Y-79020000D01*
D28*
X90752449Y-106173750D02*
X88900000Y-108026199D01*
X116925000Y-61893750D02*
X117545051Y-61893750D01*
X91372500Y-106173750D02*
X90752449Y-106173750D01*
D27*
X119163500Y-79436500D02*
X119580000Y-79020000D01*
D28*
X116925000Y-66693750D02*
X117545051Y-66693750D01*
D27*
X121770000Y-86968500D02*
X121426000Y-87312500D01*
X93008750Y-110973750D02*
X91372500Y-110973750D01*
%TO.N,Net-(J4-CC1)*%
X91372500Y-107323750D02*
X92991250Y-107323750D01*
X92991250Y-107323750D02*
X93600000Y-106715000D01*
%TO.N,GND*%
X114150000Y-84693750D02*
X114150000Y-85120636D01*
X120775000Y-74750000D02*
X117785000Y-71760000D01*
X116720000Y-88010000D02*
X116720000Y-88030000D01*
X110331250Y-75000000D02*
X110331250Y-74250000D01*
X117864386Y-85406250D02*
X119500000Y-83770636D01*
X110331250Y-74250000D02*
X110331250Y-74025000D01*
X110750000Y-76343750D02*
X110750000Y-77000000D01*
X123760000Y-77760000D02*
X123250000Y-77250000D01*
X110331250Y-72460000D02*
X110331250Y-72348750D01*
X97631250Y-65087500D02*
X100101250Y-65087500D01*
X86605625Y-90173125D02*
X86605625Y-98813125D01*
X123760000Y-90980000D02*
X123760000Y-77760000D01*
X90805625Y-90173125D02*
X90805625Y-90693125D01*
X91372500Y-111773750D02*
X90252500Y-112893750D01*
X91405625Y-97693125D02*
X90285625Y-98813125D01*
X94131250Y-60307500D02*
X96521250Y-60307500D01*
X119500000Y-83770636D02*
X119500000Y-81000000D01*
X86605625Y-90173125D02*
X90805625Y-90173125D01*
X87561250Y-64487500D02*
X91741250Y-60307500D01*
X120274890Y-78000000D02*
X121050890Y-77224000D01*
X117785000Y-71760000D02*
X110920000Y-71760000D01*
X121725000Y-68613750D02*
X121725000Y-59973750D01*
X100701250Y-64487500D02*
X102000000Y-64487500D01*
X86572500Y-104253750D02*
X86572500Y-112893750D01*
X113543750Y-62706250D02*
X111918750Y-62706250D01*
X110331250Y-75925000D02*
X110331250Y-75000000D01*
X114435614Y-85406250D02*
X117864386Y-85406250D01*
X86501250Y-82352500D02*
X90681250Y-86532500D01*
X110331250Y-72348750D02*
X110920000Y-71760000D01*
X116925000Y-67493750D02*
X113568750Y-67493750D01*
X90252500Y-104253750D02*
X86572500Y-104253750D01*
X116925000Y-60573750D02*
X117525000Y-59973750D01*
X113568750Y-67493750D02*
X113525000Y-67450000D01*
X86572500Y-104253750D02*
X86572500Y-100417500D01*
X118587500Y-80756250D02*
X118587500Y-81256250D01*
X90252500Y-112893750D02*
X86572500Y-112893750D01*
X111825000Y-92925000D02*
X121815000Y-92925000D01*
X114180000Y-88010000D02*
X116720000Y-88010000D01*
X90285625Y-98813125D02*
X86605625Y-98813125D01*
X119950000Y-78000000D02*
X120274890Y-78000000D01*
X86501250Y-77011250D02*
X86501250Y-79962500D01*
X119256250Y-80756250D02*
X119500000Y-81000000D01*
X123224000Y-77224000D02*
X123250000Y-77250000D01*
X115650000Y-81756250D02*
X116150000Y-81256250D01*
X110331250Y-75925000D02*
X110750000Y-76343750D01*
X91741250Y-60307500D02*
X94131250Y-60307500D01*
X119950000Y-78000000D02*
X119406250Y-78000000D01*
X96521250Y-60307500D02*
X100701250Y-64487500D01*
X116925000Y-61093750D02*
X116925000Y-60573750D01*
X116925000Y-68013750D02*
X117525000Y-68613750D01*
X116925000Y-67493750D02*
X116925000Y-68013750D01*
X110331250Y-72460000D02*
X110331250Y-64293750D01*
X116720000Y-88030000D02*
X111825000Y-92925000D01*
X86659375Y-98866875D02*
X86605625Y-98813125D01*
X91372500Y-105373750D02*
X90252500Y-104253750D01*
X105393750Y-61093750D02*
X116925000Y-61093750D01*
X90681250Y-73392500D02*
X90120000Y-73392500D01*
X116150000Y-81256250D02*
X118587500Y-81256250D01*
X110331250Y-74025000D02*
X110331250Y-72460000D01*
X100101250Y-65087500D02*
X100701250Y-64487500D01*
X102000000Y-64487500D02*
X105393750Y-61093750D01*
X119020000Y-88010000D02*
X119080000Y-87950000D01*
X90120000Y-73392500D02*
X86501250Y-77011250D01*
X114150000Y-85120636D02*
X114435614Y-85406250D01*
X110331250Y-64293750D02*
X111918750Y-62706250D01*
X116720000Y-88010000D02*
X119020000Y-88010000D01*
X86501250Y-79962500D02*
X86501250Y-82352500D01*
X121815000Y-92925000D02*
X123760000Y-90980000D01*
X90805625Y-90693125D02*
X91405625Y-91293125D01*
X118587500Y-80756250D02*
X119256250Y-80756250D01*
X121050890Y-77224000D02*
X123224000Y-77224000D01*
%TO.N,Net-(J5-CC1)*%
X116925000Y-65543750D02*
X113881250Y-65543750D01*
X113881250Y-65543750D02*
X113525000Y-65900000D01*
%TO.N,+3V3*%
X113500000Y-81395636D02*
X113500000Y-79606250D01*
X122700000Y-79200000D02*
X122700000Y-84820000D01*
X113650000Y-78818750D02*
X113650000Y-79245636D01*
X113139386Y-81756250D02*
X113500000Y-81395636D01*
X117150000Y-78818750D02*
X117150000Y-79245636D01*
X115864386Y-83981250D02*
X115770000Y-83981250D01*
X117864798Y-83980250D02*
X115771000Y-83980250D01*
X113650000Y-84266864D02*
X113650000Y-84693750D01*
X115771000Y-83980250D02*
X115770000Y-83981250D01*
X113139386Y-81756250D02*
X113425000Y-82041864D01*
X117150000Y-79247048D02*
X117150000Y-78818750D01*
X121500000Y-78000000D02*
X122700000Y-79200000D01*
X120650000Y-84830000D02*
X119080000Y-86400000D01*
X118587500Y-81756250D02*
X118159202Y-81756250D01*
X118606250Y-81737500D02*
X118587500Y-81756250D01*
X117864798Y-82050654D02*
X117864798Y-83980250D01*
X113575000Y-79531250D02*
X113935614Y-79531250D01*
X118159202Y-81756250D02*
X117864798Y-82050654D01*
X113650000Y-85930000D02*
X114180000Y-86460000D01*
X117150000Y-79245636D02*
X116864386Y-79531250D01*
X115770000Y-83981250D02*
X113935614Y-83981250D01*
X116150000Y-84266864D02*
X115864386Y-83981250D01*
X113650000Y-84693750D02*
X113650000Y-85930000D01*
X116864386Y-79531250D02*
X113935614Y-79531250D01*
X113935614Y-83981250D02*
X113650000Y-84266864D01*
X119020000Y-86460000D02*
X114180000Y-86460000D01*
X120650000Y-81737500D02*
X120650000Y-84830000D01*
X113500000Y-79606250D02*
X113575000Y-79531250D01*
X112712500Y-81756250D02*
X113139386Y-81756250D01*
X119080000Y-86400000D02*
X119020000Y-86460000D01*
X113425000Y-82041864D02*
X113425000Y-83831250D01*
X113425000Y-83831250D02*
X113575000Y-83981250D01*
X113650000Y-79245636D02*
X113935614Y-79531250D01*
X113575000Y-83981250D02*
X113935614Y-83981250D01*
X116150000Y-84693750D02*
X116150000Y-84266864D01*
%TO.N,Net-(J3-CC1)*%
X93073125Y-93243125D02*
X94841875Y-91474375D01*
X91405625Y-93243125D02*
X93073125Y-93243125D01*
%TO.N,Net-(J4-CC2)*%
X93700000Y-110115000D02*
X93491250Y-110323750D01*
X93491250Y-110323750D02*
X91372500Y-110323750D01*
%TO.N,Net-(U1-RBIAS)*%
X112300000Y-77000000D02*
X112759548Y-77000000D01*
X114150000Y-78375000D02*
X114150000Y-78818750D01*
X114150000Y-78390452D02*
X114150000Y-78818750D01*
X112759548Y-77000000D02*
X114150000Y-78390452D01*
%TO.N,D1_P*%
X112704368Y-80264382D02*
X112712500Y-80256250D01*
X112712500Y-80256250D02*
X112093749Y-80256250D01*
X112068749Y-80231250D02*
X108275000Y-80231250D01*
X112093749Y-80256250D02*
X112068749Y-80231250D01*
X108275000Y-80231250D02*
X93131250Y-65087500D01*
%TO.N,D1_N*%
X112093749Y-79756250D02*
X112068749Y-79781250D01*
X108461397Y-79781250D02*
X95131250Y-66451103D01*
X95131250Y-66451103D02*
X95131250Y-65087500D01*
X112068749Y-79781250D02*
X108461397Y-79781250D01*
X112712500Y-79756250D02*
X112093749Y-79756250D01*
%TO.N,D4_P*%
X91372500Y-108323750D02*
X92302501Y-108323750D01*
X92244500Y-109323750D02*
X91372500Y-109323750D01*
X91372500Y-108323750D02*
X92205838Y-108323750D01*
X92293500Y-109274750D02*
X92244500Y-109323750D01*
X112712500Y-83993054D02*
X112712500Y-83782230D01*
X104935499Y-97791749D02*
X112714480Y-90012768D01*
X92327501Y-108298750D02*
X94425698Y-108298750D01*
X92293500Y-108411412D02*
X92293500Y-109274750D01*
X92205838Y-108323750D02*
X92293500Y-108411412D01*
X92302501Y-108323750D02*
X92327501Y-108298750D01*
X112714480Y-83995034D02*
X112712500Y-83993054D01*
X94425698Y-108298750D02*
X104934099Y-97790349D01*
X112714480Y-90012768D02*
X112714480Y-83995034D01*
%TO.N,D4_N*%
X90451500Y-107872750D02*
X90500500Y-107823750D01*
X92327501Y-107848750D02*
X94239302Y-107848750D01*
X90500500Y-108823750D02*
X90451500Y-108774750D01*
X91372500Y-108823750D02*
X90500500Y-108823750D01*
X112262500Y-84234548D02*
X111999000Y-83971048D01*
X90451500Y-108774750D02*
X90451500Y-107872750D01*
X111999000Y-83541452D02*
X112284202Y-83256250D01*
X112284202Y-83256250D02*
X112712500Y-83256250D01*
X112262500Y-89825552D02*
X112262500Y-84234548D01*
X90500500Y-107823750D02*
X91372500Y-107823750D01*
X94239302Y-107848750D02*
X112262500Y-89825552D01*
X92302501Y-107823750D02*
X92327501Y-107848750D01*
X111999000Y-83971048D02*
X111999000Y-83541452D01*
X91372500Y-107823750D02*
X92302501Y-107823750D01*
%TO.N,D3_P*%
X92326625Y-94292125D02*
X92326625Y-95194125D01*
X92326625Y-95194125D02*
X92277625Y-95243125D01*
X91405625Y-94243125D02*
X92277625Y-94243125D01*
X92277625Y-94243125D02*
X92326625Y-94292125D01*
X92277625Y-95243125D02*
X91405625Y-95243125D01*
%TO.N,D3_N*%
X90533625Y-93743125D02*
X91405625Y-93743125D01*
X90484625Y-94694125D02*
X90484625Y-93792125D01*
X90484625Y-93792125D02*
X90533625Y-93743125D01*
X91405625Y-94743125D02*
X90533625Y-94743125D01*
X90533625Y-94743125D02*
X90484625Y-94694125D01*
%TO.N,Net-(J3-CC2)*%
X93846875Y-96094375D02*
X93698125Y-96243125D01*
X93698125Y-96243125D02*
X91405625Y-96243125D01*
%TO.N,Net-(J5-CC2)*%
X115093750Y-62706250D02*
X115256250Y-62543750D01*
X115256250Y-62543750D02*
X116925000Y-62543750D01*
%TO.N,USB_D_P*%
X117797000Y-64543750D02*
X116925000Y-64543750D01*
X116175000Y-78006802D02*
X117776802Y-76405000D01*
X123125000Y-75216802D02*
X123125000Y-72343198D01*
X121936802Y-76405000D02*
X123125000Y-75216802D01*
X112325552Y-63568750D02*
X115969999Y-63568750D01*
X117846000Y-64494750D02*
X117797000Y-64543750D01*
X116150000Y-78531250D02*
X116175000Y-78506250D01*
X110900000Y-64994302D02*
X112325552Y-63568750D01*
X117776802Y-76405000D02*
X121936802Y-76405000D01*
X116925000Y-63543750D02*
X117797000Y-63543750D01*
X116175000Y-78506250D02*
X116175000Y-78006802D01*
X116150000Y-78818750D02*
X116150000Y-78531250D01*
X115969999Y-63568750D02*
X115994999Y-63543750D01*
X115994999Y-63543750D02*
X116925000Y-63543750D01*
X117797000Y-63543750D02*
X117846000Y-63592750D01*
X111338052Y-71175000D02*
X110900000Y-70736948D01*
X117846000Y-63592750D02*
X117846000Y-64494750D01*
X123125000Y-72343198D02*
X121956802Y-71175000D01*
X110900000Y-70736948D02*
X110900000Y-64994302D01*
X121956802Y-71175000D02*
X111338052Y-71175000D01*
%TO.N,USB_D_N*%
X120854204Y-76855000D02*
X120885205Y-76824000D01*
X122154198Y-76824000D02*
X123575000Y-75403198D01*
X116650000Y-78406251D02*
X116625000Y-78381251D01*
X111350000Y-65180698D02*
X112511948Y-64018750D01*
X115969999Y-64018750D02*
X115994999Y-64043750D01*
X116625000Y-78381251D02*
X116625000Y-78193198D01*
X122143198Y-70725000D02*
X111524448Y-70725000D01*
X111524448Y-70725000D02*
X111350000Y-70550552D01*
X116650000Y-78818750D02*
X116650000Y-78406251D01*
X116053000Y-65043750D02*
X116925000Y-65043750D01*
X116625000Y-78193198D02*
X117963198Y-76855000D01*
X120885205Y-76824000D02*
X122154198Y-76824000D01*
X111350000Y-70550552D02*
X111350000Y-65180698D01*
X112511948Y-64018750D02*
X115969999Y-64018750D01*
X116137500Y-64043750D02*
X116004000Y-64177250D01*
X123575000Y-72156802D02*
X122143198Y-70725000D01*
X116925000Y-64043750D02*
X116137500Y-64043750D01*
X116004000Y-64177250D02*
X116004000Y-64994750D01*
X116004000Y-64994750D02*
X116053000Y-65043750D01*
X117963198Y-76855000D02*
X120854204Y-76855000D01*
X115994999Y-64043750D02*
X116925000Y-64043750D01*
X123575000Y-75403198D02*
X123575000Y-72156802D01*
%TO.N,Net-(U1-XTALOUT)*%
X115650000Y-76325000D02*
X117050000Y-74925000D01*
X119225000Y-74750000D02*
X117225000Y-74750000D01*
X115650000Y-78818750D02*
X115650000Y-76325000D01*
X117225000Y-74750000D02*
X117050000Y-74925000D01*
%TO.N,Net-(U1-XTALIN{slash}CLKIN)*%
X114850000Y-77850000D02*
X114850000Y-74925000D01*
X115150000Y-78150000D02*
X114850000Y-77850000D01*
X115150000Y-78818750D02*
X115150000Y-78150000D01*
%TO.N,D2_P*%
X92644853Y-80962500D02*
X91281250Y-80962500D01*
X92913603Y-81231250D02*
X92644853Y-80962500D01*
X112712500Y-81256250D02*
X112093749Y-81256250D01*
X112093749Y-81256250D02*
X112068749Y-81231250D01*
X112068749Y-81231250D02*
X92913603Y-81231250D01*
%TO.N,D2_N*%
X112068749Y-80781250D02*
X93100000Y-80781250D01*
X112712500Y-80756250D02*
X112093749Y-80756250D01*
X112093749Y-80756250D02*
X112068749Y-80781250D01*
X93100000Y-80781250D02*
X91281250Y-78962500D01*
%TO.N,Net-(U1-RESET_N)*%
X118656250Y-80187500D02*
X118587500Y-80256250D01*
X120650000Y-80187500D02*
X118656250Y-80187500D01*
%TD*%
M02*
