%TF.GenerationSoftware,KiCad,Pcbnew,10.0.1*%
%TF.CreationDate,2026-06-25T14:03:28+05:30*%
%TF.ProjectId,Erbium,45726269-756d-42e6-9b69-6361645f7063,rev?*%
%TF.SameCoordinates,Original*%
%TF.FileFunction,Paste,Top*%
%TF.FilePolarity,Positive*%
%FSLAX46Y46*%
G04 Gerber Fmt 4.6, Leading zero omitted, Abs format (unit mm)*
G04 Created by KiCad (PCBNEW 10.0.1) date 2026-06-25 14:03:28*
%MOMM*%
%LPD*%
G01*
G04 APERTURE LIST*
G04 Aperture macros list*
%AMRoundRect*
0 Rectangle with rounded corners*
0 $1 Rounding radius*
0 $2 $3 $4 $5 $6 $7 $8 $9 X,Y pos of 4 corners*
0 Add a 4 corners polygon primitive as box body*
4,1,4,$2,$3,$4,$5,$6,$7,$8,$9,$2,$3,0*
0 Add four circle primitives for the rounded corners*
1,1,$1+$1,$2,$3*
1,1,$1+$1,$4,$5*
1,1,$1+$1,$6,$7*
1,1,$1+$1,$8,$9*
0 Add four rect primitives between the rounded corners*
20,1,$1+$1,$2,$3,$4,$5,0*
20,1,$1+$1,$4,$5,$6,$7,0*
20,1,$1+$1,$6,$7,$8,$9,0*
20,1,$1+$1,$8,$9,$2,$3,0*%
G04 Aperture macros list end*
%ADD10RoundRect,0.225000X-0.250000X0.225000X-0.250000X-0.225000X0.250000X-0.225000X0.250000X0.225000X0*%
%ADD11RoundRect,0.225000X0.250000X-0.225000X0.250000X0.225000X-0.250000X0.225000X-0.250000X-0.225000X0*%
%ADD12RoundRect,0.225000X-0.225000X-0.250000X0.225000X-0.250000X0.225000X0.250000X-0.225000X0.250000X0*%
%ADD13R,1.240000X0.600000*%
%ADD14R,1.240000X0.300000*%
%ADD15RoundRect,0.250000X-0.450000X-0.350000X0.450000X-0.350000X0.450000X0.350000X-0.450000X0.350000X0*%
%ADD16RoundRect,0.247500X-0.247500X-0.247500X0.247500X-0.247500X0.247500X0.247500X-0.247500X0.247500X0*%
%ADD17RoundRect,0.062500X-0.350000X-0.062500X0.350000X-0.062500X0.350000X0.062500X-0.350000X0.062500X0*%
%ADD18RoundRect,0.062500X-0.062500X-0.350000X0.062500X-0.350000X0.062500X0.350000X-0.062500X0.350000X0*%
G04 APERTURE END LIST*
D10*
%TO.C,R2*%
X93600000Y-105165000D03*
X93600000Y-106715000D03*
%TD*%
D11*
%TO.C,R7*%
X113525000Y-67450000D03*
X113525000Y-65900000D03*
%TD*%
%TO.C,C12*%
X115830000Y-88020000D03*
X115830000Y-86470000D03*
%TD*%
D10*
%TO.C,R1*%
X94841875Y-89924375D03*
X94841875Y-91474375D03*
%TD*%
D11*
%TO.C,C9*%
X119080000Y-87950000D03*
X119080000Y-86400000D03*
%TD*%
%TO.C,R4*%
X93700000Y-111665000D03*
X93700000Y-110115000D03*
%TD*%
%TO.C,C11*%
X117460000Y-88010000D03*
X117460000Y-86460000D03*
%TD*%
D12*
%TO.C,R6*%
X110750000Y-77000000D03*
X112300000Y-77000000D03*
%TD*%
D13*
%TO.C,J4*%
X91372500Y-105373750D03*
X91372500Y-106173750D03*
D14*
X91372500Y-107323750D03*
X91372500Y-108323750D03*
X91372500Y-108823750D03*
X91372500Y-109823750D03*
D13*
X91372500Y-110973750D03*
X91372500Y-111773750D03*
X91372500Y-111773750D03*
X91372500Y-110973750D03*
D14*
X91372500Y-110323750D03*
X91372500Y-109323750D03*
X91372500Y-107823750D03*
X91372500Y-106823750D03*
D13*
X91372500Y-106173750D03*
X91372500Y-105373750D03*
%TD*%
%TO.C,J3*%
X91405625Y-91293125D03*
X91405625Y-92093125D03*
D14*
X91405625Y-93243125D03*
X91405625Y-94243125D03*
X91405625Y-94743125D03*
X91405625Y-95743125D03*
D13*
X91405625Y-96893125D03*
X91405625Y-97693125D03*
X91405625Y-97693125D03*
X91405625Y-96893125D03*
D14*
X91405625Y-96243125D03*
X91405625Y-95243125D03*
X91405625Y-93743125D03*
X91405625Y-92743125D03*
D13*
X91405625Y-92093125D03*
X91405625Y-91293125D03*
%TD*%
D12*
%TO.C,R8*%
X113543750Y-62706250D03*
X115093750Y-62706250D03*
%TD*%
D13*
%TO.C,J5*%
X116925000Y-67493750D03*
X116925000Y-66693750D03*
D14*
X116925000Y-65543750D03*
X116925000Y-64543750D03*
X116925000Y-64043750D03*
X116925000Y-63043750D03*
D13*
X116925000Y-61893750D03*
X116925000Y-61093750D03*
X116925000Y-61093750D03*
X116925000Y-61893750D03*
D14*
X116925000Y-62543750D03*
X116925000Y-63543750D03*
X116925000Y-65043750D03*
X116925000Y-66043750D03*
D13*
X116925000Y-66693750D03*
X116925000Y-67493750D03*
%TD*%
D12*
%TO.C,C8*%
X119225000Y-74750000D03*
X120775000Y-74750000D03*
%TD*%
D15*
%TO.C,24Mhz1*%
X114850000Y-74925000D03*
X117050000Y-74925000D03*
X117050000Y-73225000D03*
X114850000Y-73225000D03*
%TD*%
D11*
%TO.C,R5*%
X120650000Y-81737500D03*
X120650000Y-80187500D03*
%TD*%
D12*
%TO.C,C5*%
X119950000Y-78000000D03*
X121500000Y-78000000D03*
%TD*%
D10*
%TO.C,C7*%
X112070000Y-73275000D03*
X112070000Y-74825000D03*
%TD*%
D11*
%TO.C,R3*%
X93846875Y-97644375D03*
X93846875Y-96094375D03*
%TD*%
D16*
%TO.C,U1*%
X114420000Y-80526250D03*
X114420000Y-81756250D03*
X114420000Y-82986250D03*
X115650000Y-80526250D03*
X115650000Y-81756250D03*
X115650000Y-82986250D03*
X116880000Y-80526250D03*
X116880000Y-81756250D03*
X116880000Y-82986250D03*
D17*
X112712500Y-79756250D03*
X112712500Y-80256250D03*
X112712500Y-80756250D03*
X112712500Y-81256250D03*
X112712500Y-81756250D03*
X112712500Y-82256250D03*
X112712500Y-82756250D03*
X112712500Y-83256250D03*
X112712500Y-83756250D03*
D18*
X113650000Y-84693750D03*
X114150000Y-84693750D03*
X114650000Y-84693750D03*
X115150000Y-84693750D03*
X115650000Y-84693750D03*
X116150000Y-84693750D03*
X116650000Y-84693750D03*
X117150000Y-84693750D03*
X117650000Y-84693750D03*
D17*
X118587500Y-83756250D03*
X118587500Y-83256250D03*
X118587500Y-82756250D03*
X118587500Y-82256250D03*
X118587500Y-81756250D03*
X118587500Y-81256250D03*
X118587500Y-80756250D03*
X118587500Y-80256250D03*
X118587500Y-79756250D03*
D18*
X117650000Y-78818750D03*
X117150000Y-78818750D03*
X116650000Y-78818750D03*
X116150000Y-78818750D03*
X115650000Y-78818750D03*
X115150000Y-78818750D03*
X114650000Y-78818750D03*
X114150000Y-78818750D03*
X113650000Y-78818750D03*
%TD*%
D11*
%TO.C,C10*%
X114180000Y-88010000D03*
X114180000Y-86460000D03*
%TD*%
M02*
