M48
; DRILL file KiCad 10.0.1 date 2026-06-10T21:11:11
; FORMAT={-:-/ absolute / inch / decimal}
; #@! TF.CreationDate,2026-06-10T21:11:11+05:30
; #@! TF.GenerationSoftware,Kicad,Pcbnew,10.0.1
; #@! TF.FileFunction,Plated,1,2,PTH
FMAT,2
INCH
; #@! TA.AperFunction,Plated,PTH,ViaDrill
T1C0.0118
; #@! TA.AperFunction,Plated,PTH,ComponentDrill
T2C0.0236
; #@! TA.AperFunction,Plated,PTH,ComponentDrill
T3C0.0354
; #@! TA.AperFunction,Plated,PTH,ComponentDrill
T4C0.0512
%
G90
G05
T1
X3.4688Y-3.7812
X3.4688Y-3.7812
X3.5Y-2.6562
X3.5Y-4.1388
X4.3438Y-2.9232
X4.4026Y-3.6585
X4.4062Y-2.4688
X4.6875Y-2.4965
X4.7047Y-3.189
X4.7806Y-3.4375
X4.8524Y-3.0413
T3
X3.5682Y-2.5625
X3.5938Y-3.0103
X3.5938Y-3.1088
X3.5938Y-3.1875
X3.5938Y-3.2859
X3.6666Y-2.5625
X3.7453Y-2.5625
X3.8438Y-2.5625
T2
G00X3.422Y-3.6112
M15
G01X3.3905Y-3.6112
M16
G05
G00X3.422Y-3.9513
M15
G01X3.3905Y-3.9513
M16
G05
G00X3.4241Y-4.1045
M15
G01X3.3926Y-4.1045
M16
G05
G00X3.4241Y-4.4446
M15
G01X3.3926Y-4.4446
M16
G05
G00X3.5933Y-3.6112
M15
G01X3.55Y-3.6112
M16
G05
G00X3.5933Y-3.9513
M15
G01X3.55Y-3.9513
M16
G05
G00X3.5954Y-4.1045
M15
G01X3.5521Y-4.1045
M16
G05
G00X3.5954Y-4.4446
M15
G01X3.5521Y-4.4446
M16
G05
G00X4.6053Y-2.3612
M15
G01X4.6486Y-2.3612
M16
G05
G00X4.6053Y-2.7013
M15
G01X4.6486Y-2.7013
M16
G05
G00X4.7766Y-2.3612
M15
G01X4.8081Y-2.3612
M16
G05
G00X4.7766Y-2.7013
M15
G01X4.8081Y-2.7013
M16
G05
T4
G00X3.4056Y-3.1678
M15
G01X3.4056Y-3.1284
M16
G05
G00X3.4473Y-2.5586
M15
G01X3.4473Y-2.5192
M16
G05
G00X3.5504Y-2.8895
M15
G01X3.5898Y-2.8895
M16
G05
G00X3.5898Y-3.4068
M15
G01X3.5504Y-3.4068
M16
G05
G00X3.6863Y-2.3743
M15
G01X3.7256Y-2.3743
M16
G05
G00X3.9646Y-2.5192
M15
G01X3.9646Y-2.5586
M16
G05
M30
